<svg width="20" height="21" viewBox="0 0 20 21" fill="none" xmlns="http://www.w3.org/2000/svg">
<path d="M16.6715 7.71802C16.6715 7.71802 16.1285 14.453 15.8135 17.29C15.6635 18.645 14.8265 19.439 13.4555 19.464C10.8465 19.511 8.23447 19.514 5.62647 19.459C4.30747 19.432 3.48447 18.628 3.33747 17.297C3.02047 14.435 2.48047 7.71802 2.48047 7.71802" stroke="#7B61FF" stroke-width="2" stroke-linecap="round" stroke-linejoin="round"/>
<path d="M18.0557 4.4895H1.09766" stroke="#7B61FF" stroke-width="2" stroke-linecap="round" stroke-linejoin="round"/>
<path d="M14.7863 4.48961C14.0013 4.48961 13.3253 3.93461 13.1713 3.16561L12.9283 1.94961C12.7783 1.38861 12.2703 1.00061 11.6913 1.00061H7.45828C6.87928 1.00061 6.37128 1.38861 6.22128 1.94961L5.97828 3.16561C5.82428 3.93461 5.14828 4.48961 4.36328 4.48961" stroke="#7B61FF" stroke-width="2" stroke-linecap="round" stroke-linejoin="round"/>
</svg>
