<svg xmlns="http://www.w3.org/2000/svg" width="24" height="24" viewBox="0 0 24 24">
    <defs>
        <filter id="kop5yd1pna">
            <feColorMatrix in="SourceGraphic" values="0 0 0 0 0.535209 0 0 0 0 0.593792 0 0 0 0 0.660128 0 0 0 1.000000 0"/>
        </filter>
    </defs>
    <g fill="none" fill-rule="evenodd">
        <g>
            <g filter="url(#kop5yd1pna)" transform="translate(-578 -142) translate(291 34)">
                <g fill="#161616" fill-rule="nonzero">
                    <path d="M22.26 9.182c-.36-.054-.729-.106-1.101-.156-.188-.624-.438-1.228-.747-1.803.227-.298.452-.596.669-.89.481-.65.412-1.575-.162-2.148L19.48 2.747c-.574-.574-1.498-.644-2.15-.162-.293.218-.592.442-.889.67-.574-.31-1.179-.56-1.803-.748-.05-.372-.102-.742-.155-1.102C14.364.605 13.66 0 12.85 0h-2.034c-.812 0-1.514.604-1.634 1.405-.054.36-.106.73-.156 1.102-.624.187-1.228.438-1.802.747-.297-.227-.596-.451-.89-.669-.651-.482-1.575-.412-2.149.162L2.747 4.184c-.574.574-.644 1.498-.162 2.15.217.293.442.591.67.89-.31.574-.56 1.178-.748 1.802-.372.05-.742.102-1.102.156-.8.12-1.405.822-1.405 1.634v2.034c0 .811.604 1.514 1.405 1.633.36.054.73.107 1.102.156.188.624.438 1.229.747 1.803-.227.298-.452.596-.67.89-.48.651-.411 1.575.163 2.149l1.438 1.438c.574.574 1.498.643 2.149.161.294-.217.592-.442.89-.669.574.31 1.179.56 1.802.748.05.372.102.741.156 1.101.12.801.822 1.406 1.634 1.406h2.034c.811 0 1.514-.604 1.634-1.406.053-.36.106-.73.155-1.101.624-.188 1.229-.439 1.803-.748.297.227.596.452.89.67.65.481 1.575.412 2.149-.162l1.438-1.438c.574-.574.643-1.498.162-2.15-.218-.293-.442-.591-.67-.889.31-.574.56-1.179.748-1.803.372-.05.742-.102 1.101-.155.802-.12 1.406-.823 1.406-1.634v-2.034c0-.812-.604-1.514-1.406-1.634zm-.575 3.385c-.327.047-.66.093-.995.137-.661.086-1.203.555-1.38 1.196-.168.613-.413 1.204-.728 1.758-.328.578-.277 1.293.13 1.822.205.267.408.535.606.8l-1.037 1.038c-.266-.198-.535-.402-.801-.607-.529-.407-1.244-.457-1.822-.129-.554.315-1.146.56-1.758.729-.64.176-1.11.718-1.196 1.38-.044.334-.09.667-.137.994h-1.468c-.047-.327-.093-.66-.137-.994-.086-.662-.556-1.204-1.196-1.38-.613-.169-1.204-.414-1.758-.729-.578-.328-1.294-.278-1.822.13-.267.204-.535.408-.801.606l-1.038-1.037c.198-.266.402-.534.607-.801.407-.53.458-1.244.13-1.822-.315-.554-.56-1.146-.73-1.758-.176-.64-.717-1.11-1.379-1.197-.334-.043-.668-.09-.995-.137V11.1c.327-.047.66-.093.995-.137.662-.086 1.203-.556 1.38-1.196.168-.613.414-1.205.728-1.758.329-.578.278-1.293-.129-1.822-.205-.268-.409-.536-.607-.801l1.038-1.037c.266.198.534.402.8.606.53.407 1.244.458 1.823.13.553-.315 1.145-.56 1.758-.73.64-.176 1.11-.717 1.196-1.379.044-.334.09-.668.137-.994h1.467c.048.326.094.66.137.994.087.662.556 1.203 1.197 1.38.613.169 1.204.414 1.758.728.578.329 1.293.278 1.822-.129.266-.204.534-.408.8-.606l1.038 1.037c-.198.265-.401.534-.607.8-.406.53-.457 1.245-.129 1.823.315.554.56 1.145.729 1.758.176.64.718 1.11 1.38 1.196.334.044.667.09.994.137v1.468z" transform="translate(287 108)"/>
                    <path d="M11.833 7.612c-2.328 0-4.221 1.893-4.221 4.22 0 2.328 1.893 4.222 4.22 4.222 2.328 0 4.222-1.894 4.222-4.221 0-2.328-1.894-4.221-4.221-4.221zm0 6.565c-1.293 0-2.345-1.051-2.345-2.344s1.052-2.345 2.345-2.345c1.293 0 2.344 1.052 2.345 2.345 0 1.293-1.052 2.344-2.345 2.344z" transform="translate(287 108)"/>
                </g>
            </g>
        </g>
    </g>
</svg>
