<svg xmlns="http://www.w3.org/2000/svg" width="60" height="60" viewBox="0 0 60 60">
    <g fill="none" fill-rule="evenodd">
        <g>
            <g>
                <g transform="translate(-291 -124) translate(291 34) translate(0 90)">
                    <rect width="60" height="60" fill="#8897A8" opacity=".5" rx="10"/>
                    <g fill="#FFF" fill-rule="nonzero">
                        <g>
                            <path d="M22.096 15.235c-.795-.699-1.76-1.303-2.867-1.795-.473-.21-1.027.003-1.237.476-.21.473.003 1.027.476 1.238.933.415 1.738.916 2.39 1.49.805.707 1.267 1.73 1.267 2.81v1.733c0 .517-.42.938-.938.938H2.813c-.516 0-.937-.42-.937-.938v-1.734c0-1.079.462-2.102 1.266-2.81.948-.832 3.707-2.768 8.859-2.768 3.825 0 6.938-3.112 6.938-6.938C18.938 3.112 15.825 0 12 0 8.175 0 5.062 3.112 5.062 6.938c0 2.236 1.064 4.228 2.712 5.497-3.015.663-4.89 1.94-5.87 2.8C.694 16.298 0 17.835 0 19.453v1.735C0 22.738 1.262 24 2.813 24h18.375C22.738 24 24 22.738 24 21.187v-1.734c0-1.618-.694-3.155-1.904-4.218zM6.937 6.938c0-2.792 2.272-5.063 5.063-5.063s5.063 2.271 5.063 5.063C17.063 9.727 14.79 12 12 12S6.937 9.729 6.937 6.937z" transform="translate(18 18)"/>
                        </g>
                    </g>
                </g>
            </g>
        </g>
    </g>
</svg>
